<?xml version="1.0" encoding="UTF-8" standalone="no"?>
<!DOCTYPE svg PUBLIC "-//W3C//DTD SVG 1.1//EN" "http://www.w3.org/Graphics/SVG/1.1/DTD/svg11.dtd">
<svg width="100%" height="100%" viewBox="0 0 1882 687" version="1.1" xmlns="http://www.w3.org/2000/svg" xmlns:xlink="http://www.w3.org/1999/xlink" xml:space="preserve" xmlns:serif="http://www.serif.com/" style="fill-rule:evenodd;clip-rule:evenodd;stroke-linecap:round;stroke-linejoin:round;stroke-miterlimit:1.5;">
    <g transform="matrix(1,0,0,1,-3937.07,-2462.75)">
        <g id="Artboard3" transform="matrix(1,0,0,1,1978.07,1277.96)">
            <rect x="1959" y="1184.79" width="1881.18" height="686.669" style="fill:none;"/>
            <g transform="matrix(1,0,0,1,-1.08234,-513.986)">
                <path d="M2434.03,2277.29C2434.01,2277.71 2434,2278.12 2433.99,2278.54L2320.53,2278.54C2320.53,2242.07 2306.93,2212.46 2270.46,2212.46C2233.99,2212.46 2219.39,2242.07 2219.39,2278.54L2102.73,2278.54C2094.34,2128.87 2094.81,1980.59 2102.73,1833.47L2219.39,1833.47C2219.39,1833.47 2215.16,1892.47 2219.39,1918.76C2225.01,1953.72 2233.99,1984.84 2270.46,1984.84C2306.93,1984.84 2318.23,1956.68 2320.53,1918.76C2322.14,1892.24 2320.53,1833.47 2320.53,1833.47L2433.99,1833.47C2435.9,1898.51 2440.02,1936.8 2440.36,2001.68C2431.55,2031.62 2423.63,2091.37 2423.63,2127.57C2423.63,2224.92 2432.34,2269.53 2434.03,2277.29ZM2794.93,1894.17C2826.51,1935.53 2848.54,2001.27 2848.54,2100.91C2848.54,2227.8 2835.69,2278.54 2835.69,2278.54L2705.57,2278.54C2705.57,2242.07 2675.96,2212.46 2639.5,2212.46C2603.03,2212.46 2573.42,2242.07 2573.42,2278.54L2465.15,2278.54C2465.15,2278.54 2454.47,2235.41 2454.47,2127.57C2454.47,2010.9 2493.99,1932.51 2545.64,1886.2C2529.68,1874.13 2519.36,1855 2519.36,1833.47C2519.36,1797 2548.96,1767.39 2585.43,1767.39C2621.9,1767.39 2651.5,1797 2651.5,1833.47C2651.5,1834.06 2651.5,1834.65 2651.48,1835.24C2659.7,1834.05 2667.8,1833.47 2675.7,1833.47C2684.57,1833.47 2693.65,1834.25 2702.78,1835.94C2702.75,1835.12 2702.74,1834.3 2702.74,1833.47C2702.74,1797 2732.34,1767.39 2768.81,1767.39C2805.28,1767.39 2834.89,1797 2834.89,1833.47C2834.89,1860.66 2818.42,1884.03 2794.93,1894.17ZM2585.43,1814.41C2585.43,1803.9 2576.6,1795.36 2565.72,1795.36C2554.85,1795.36 2546.02,1803.9 2546.02,1814.41C2546.02,1824.93 2554.85,1833.47 2565.72,1833.47C2576.6,1833.47 2585.43,1824.93 2585.43,1814.41ZM2798.64,1814.41C2798.64,1803.9 2790.11,1795.36 2779.59,1795.36C2769.08,1795.36 2760.54,1803.9 2760.54,1814.41C2760.54,1824.93 2769.08,1833.47 2779.59,1833.47C2790.11,1833.47 2798.64,1824.93 2798.64,1814.41ZM2687.9,1925.63C2653.89,1921.04 2619.75,1920.5 2585.43,1925.63C2585.43,1953.91 2608.39,1976.87 2636.66,1976.87C2664.94,1976.87 2687.9,1953.91 2687.9,1925.63ZM3665.38,1856.31C3665.58,1843.64 3675.91,1833.47 3688.59,1833.47L3688.6,1833.47C3707.02,1833.47 3724.67,1840.83 3737.64,1853.91C3750.61,1866.99 3757.81,1884.72 3757.65,1903.14L3757.21,1952.01C3757.21,1992.01 3726.6,2024.86 3687.53,2028.41C3682.27,2129.21 3681.88,2200.08 3685.17,2248.27C3685.89,2256.02 3683.32,2263.72 3678.08,2269.47C3672.84,2275.23 3665.41,2278.51 3657.63,2278.51C3634.89,2278.54 3603.97,2278.54 3581.41,2278.54C3573.74,2278.54 3566.43,2275.37 3561.19,2269.77C3555.96,2264.18 3553.27,2256.67 3553.77,2249.03C3558.27,2178.31 3558.65,2105.52 3551.12,2028.73L3550.36,2028.73C3532.08,2028.73 3514.55,2021.47 3501.62,2008.54C3488.7,1995.62 3481.44,1978.09 3481.44,1959.81L3481.94,1899.87C3482.24,1863.11 3512.13,1833.47 3548.9,1833.47L3548.9,1833.47C3555.79,1833.47 3562.39,1836.23 3567.22,1841.14C3572.05,1846.05 3574.71,1852.69 3574.6,1859.57L3573.96,1899.54C3573.96,1921.41 3596.58,1939.16 3618.45,1939.16C3640.31,1939.16 3664.69,1921.41 3664.69,1899.54L3665.38,1856.31ZM2857.88,1961.03C2859.05,1918.51 2861.14,1875.99 2864.28,1833.47L3018.35,1833.47L3018.35,1833.47C3018.85,1833.47 3019.36,1833.47 3019.86,1833.47C3074.79,1833.47 3124.26,1857.05 3158.69,1894.63C3152.71,1977.74 3151.18,2062.68 3157.02,2150.59C3122.67,2187.13 3073.91,2209.96 3019.86,2209.96C3019.36,2209.96 3018.85,2209.95 3018.35,2209.95L3018.35,2209.96L3000.11,2211.55C2999.73,2259.22 2998.27,2274.54 2996.43,2278.54L2866.45,2278.54C2866.45,2278.54 2878.69,2228.9 2878.2,2102.01C2878.05,2064.09 2869.58,2006.08 2857.88,1961.03ZM3046.78,1925.5C3012.77,1920.9 2978.64,1920.36 2944.31,1925.5C2944.31,1953.77 2967.27,1976.73 2995.55,1976.73C3023.82,1976.73 3046.78,1953.77 3046.78,1925.5ZM3532.23,2047.5C3520.84,2140.52 3441.8,2209.96 3345.71,2209.96C3345.21,2209.96 3344.71,2209.95 3344.21,2209.95L3344.21,2209.96L3325.97,2211.55C3325.59,2259.22 3324.13,2274.54 3322.28,2278.54L3190.14,2278.54C3177.25,2127.05 3174.51,1977.87 3190.14,1833.47L3344.21,1833.47L3344.21,1833.47C3344.71,1833.47 3345.21,1833.47 3345.71,1833.47C3390.1,1833.47 3426.72,1847.59 3458.92,1873.32L3458.21,1964.08C3458.21,1985.52 3468.14,2006.82 3483.3,2021.99C3495.93,2034.62 3514.72,2045.17 3532.23,2047.5ZM3370.04,1925.5C3336.04,1920.9 3301.9,1920.36 3267.58,1925.5C3267.58,1953.77 3290.53,1976.73 3318.81,1976.73C3347.09,1976.73 3370.04,1953.77 3370.04,1925.5Z" style="fill:rgb(255,237,86);"/>
                <clipPath id="_clip1">
                    <path d="M2434.03,2277.29C2434.01,2277.71 2434,2278.12 2433.99,2278.54L2320.53,2278.54C2320.53,2242.07 2306.93,2212.46 2270.46,2212.46C2233.99,2212.46 2219.39,2242.07 2219.39,2278.54L2102.73,2278.54C2094.34,2128.87 2094.81,1980.59 2102.73,1833.47L2219.39,1833.47C2219.39,1833.47 2215.16,1892.47 2219.39,1918.76C2225.01,1953.72 2233.99,1984.84 2270.46,1984.84C2306.93,1984.84 2318.23,1956.68 2320.53,1918.76C2322.14,1892.24 2320.53,1833.47 2320.53,1833.47L2433.99,1833.47C2435.9,1898.51 2440.02,1936.8 2440.36,2001.68C2431.55,2031.62 2423.63,2091.37 2423.63,2127.57C2423.63,2224.92 2432.34,2269.53 2434.03,2277.29ZM2794.93,1894.17C2826.51,1935.53 2848.54,2001.27 2848.54,2100.91C2848.54,2227.8 2835.69,2278.54 2835.69,2278.54L2705.57,2278.54C2705.57,2242.07 2675.96,2212.46 2639.5,2212.46C2603.03,2212.46 2573.42,2242.07 2573.42,2278.54L2465.15,2278.54C2465.15,2278.54 2454.47,2235.41 2454.47,2127.57C2454.47,2010.9 2493.99,1932.51 2545.64,1886.2C2529.68,1874.13 2519.36,1855 2519.36,1833.47C2519.36,1797 2548.96,1767.39 2585.43,1767.39C2621.9,1767.39 2651.5,1797 2651.5,1833.47C2651.5,1834.06 2651.5,1834.65 2651.48,1835.24C2659.7,1834.05 2667.8,1833.47 2675.7,1833.47C2684.57,1833.47 2693.65,1834.25 2702.78,1835.94C2702.75,1835.12 2702.74,1834.3 2702.74,1833.47C2702.74,1797 2732.34,1767.39 2768.81,1767.39C2805.28,1767.39 2834.89,1797 2834.89,1833.47C2834.89,1860.66 2818.42,1884.03 2794.93,1894.17ZM2585.43,1814.41C2585.43,1803.9 2576.6,1795.36 2565.72,1795.36C2554.85,1795.36 2546.02,1803.9 2546.02,1814.41C2546.02,1824.93 2554.85,1833.47 2565.72,1833.47C2576.6,1833.47 2585.43,1824.93 2585.43,1814.41ZM2798.64,1814.41C2798.64,1803.9 2790.11,1795.36 2779.59,1795.36C2769.08,1795.36 2760.54,1803.9 2760.54,1814.41C2760.54,1824.93 2769.08,1833.47 2779.59,1833.47C2790.11,1833.47 2798.64,1824.93 2798.64,1814.41ZM2687.9,1925.63C2653.89,1921.04 2619.75,1920.5 2585.43,1925.63C2585.43,1953.91 2608.39,1976.87 2636.66,1976.87C2664.94,1976.87 2687.9,1953.91 2687.9,1925.63ZM3665.38,1856.31C3665.58,1843.64 3675.91,1833.47 3688.59,1833.47L3688.6,1833.47C3707.02,1833.47 3724.67,1840.83 3737.64,1853.91C3750.61,1866.99 3757.81,1884.72 3757.65,1903.14L3757.21,1952.01C3757.21,1992.01 3726.6,2024.86 3687.53,2028.41C3682.27,2129.21 3681.88,2200.08 3685.17,2248.27C3685.89,2256.02 3683.32,2263.72 3678.08,2269.47C3672.84,2275.23 3665.41,2278.51 3657.63,2278.51C3634.89,2278.54 3603.97,2278.54 3581.41,2278.54C3573.74,2278.54 3566.43,2275.37 3561.19,2269.77C3555.96,2264.18 3553.27,2256.67 3553.77,2249.03C3558.27,2178.31 3558.65,2105.52 3551.12,2028.73L3550.36,2028.73C3532.08,2028.73 3514.55,2021.47 3501.62,2008.54C3488.7,1995.62 3481.44,1978.09 3481.44,1959.81L3481.94,1899.87C3482.24,1863.11 3512.13,1833.47 3548.9,1833.47L3548.9,1833.47C3555.79,1833.47 3562.39,1836.23 3567.22,1841.14C3572.05,1846.05 3574.71,1852.69 3574.6,1859.57L3573.96,1899.54C3573.96,1921.41 3596.58,1939.16 3618.45,1939.16C3640.31,1939.16 3664.69,1921.41 3664.69,1899.54L3665.38,1856.31ZM2857.88,1961.03C2859.05,1918.51 2861.14,1875.99 2864.28,1833.47L3018.35,1833.47L3018.35,1833.47C3018.85,1833.47 3019.36,1833.47 3019.86,1833.47C3074.79,1833.47 3124.26,1857.05 3158.69,1894.63C3152.71,1977.74 3151.18,2062.68 3157.02,2150.59C3122.67,2187.13 3073.91,2209.96 3019.86,2209.96C3019.36,2209.96 3018.85,2209.95 3018.35,2209.95L3018.35,2209.96L3000.11,2211.55C2999.73,2259.22 2998.27,2274.54 2996.43,2278.54L2866.45,2278.54C2866.45,2278.54 2878.69,2228.9 2878.2,2102.01C2878.05,2064.09 2869.58,2006.08 2857.88,1961.03ZM3046.78,1925.5C3012.77,1920.9 2978.64,1920.36 2944.31,1925.5C2944.31,1953.77 2967.27,1976.73 2995.55,1976.73C3023.82,1976.73 3046.78,1953.77 3046.78,1925.5ZM3532.23,2047.5C3520.84,2140.52 3441.8,2209.96 3345.71,2209.96C3345.21,2209.96 3344.71,2209.95 3344.21,2209.95L3344.21,2209.96L3325.97,2211.55C3325.59,2259.22 3324.13,2274.54 3322.28,2278.54L3190.14,2278.54C3177.25,2127.05 3174.51,1977.87 3190.14,1833.47L3344.21,1833.47L3344.21,1833.47C3344.71,1833.47 3345.21,1833.47 3345.71,1833.47C3390.1,1833.47 3426.72,1847.59 3458.92,1873.32L3458.21,1964.08C3458.21,1985.52 3468.14,2006.82 3483.3,2021.99C3495.93,2034.62 3514.72,2045.17 3532.23,2047.5ZM3370.04,1925.5C3336.04,1920.9 3301.9,1920.36 3267.58,1925.5C3267.58,1953.77 3290.53,1976.73 3318.81,1976.73C3347.09,1976.73 3370.04,1953.77 3370.04,1925.5Z"/>
                </clipPath>
                <g clip-path="url(#_clip1)">
                    <path d="M2847.98,2087.3C3426.29,2087.3 3876.74,2147.46 3876.74,2278.54C3876.74,2409.61 3412.24,2584.89 2833.93,2584.89C2255.63,2584.89 1819.23,2409.61 1819.23,2278.54C1819.23,2147.46 2269.68,2087.3 2847.98,2087.3Z" style="fill:rgb(221,199,89);"/>
                </g>
                <path d="M2434.03,2277.29C2434.01,2277.71 2434,2278.12 2433.99,2278.54L2320.53,2278.54C2320.53,2242.07 2306.93,2212.46 2270.46,2212.46C2233.99,2212.46 2219.39,2242.07 2219.39,2278.54L2102.73,2278.54C2094.34,2128.87 2094.81,1980.59 2102.73,1833.47L2219.39,1833.47C2219.39,1833.47 2215.16,1892.47 2219.39,1918.76C2225.01,1953.72 2233.99,1984.84 2270.46,1984.84C2306.93,1984.84 2318.23,1956.68 2320.53,1918.76C2322.14,1892.24 2320.53,1833.47 2320.53,1833.47L2433.99,1833.47C2435.9,1898.51 2440.02,1936.8 2440.36,2001.68C2431.55,2031.62 2423.63,2091.37 2423.63,2127.57C2423.63,2224.92 2432.34,2269.53 2434.03,2277.29ZM2794.93,1894.17C2826.51,1935.53 2848.54,2001.27 2848.54,2100.91C2848.54,2227.8 2835.69,2278.54 2835.69,2278.54L2705.57,2278.54C2705.57,2242.07 2675.96,2212.46 2639.5,2212.46C2603.03,2212.46 2573.42,2242.07 2573.42,2278.54L2465.15,2278.54C2465.15,2278.54 2454.47,2235.41 2454.47,2127.57C2454.47,2010.9 2493.99,1932.51 2545.64,1886.2C2529.68,1874.13 2519.36,1855 2519.36,1833.47C2519.36,1797 2548.96,1767.39 2585.43,1767.39C2621.9,1767.39 2651.5,1797 2651.5,1833.47C2651.5,1834.06 2651.5,1834.65 2651.48,1835.24C2659.7,1834.05 2667.8,1833.47 2675.7,1833.47C2684.57,1833.47 2693.65,1834.25 2702.78,1835.94C2702.75,1835.12 2702.74,1834.3 2702.74,1833.47C2702.74,1797 2732.34,1767.39 2768.81,1767.39C2805.28,1767.39 2834.89,1797 2834.89,1833.47C2834.89,1860.66 2818.42,1884.03 2794.93,1894.17ZM2585.43,1814.41C2585.43,1803.9 2576.6,1795.36 2565.72,1795.36C2554.85,1795.36 2546.02,1803.9 2546.02,1814.41C2546.02,1824.93 2554.85,1833.47 2565.72,1833.47C2576.6,1833.47 2585.43,1824.93 2585.43,1814.41ZM2798.64,1814.41C2798.64,1803.9 2790.11,1795.36 2779.59,1795.36C2769.08,1795.36 2760.54,1803.9 2760.54,1814.41C2760.54,1824.93 2769.08,1833.47 2779.59,1833.47C2790.11,1833.47 2798.64,1824.93 2798.64,1814.41ZM2687.9,1925.63C2653.89,1921.04 2619.75,1920.5 2585.43,1925.63C2585.43,1953.91 2608.39,1976.87 2636.66,1976.87C2664.94,1976.87 2687.9,1953.91 2687.9,1925.63ZM3665.38,1856.31C3665.58,1843.64 3675.91,1833.47 3688.59,1833.47L3688.6,1833.47C3707.02,1833.47 3724.67,1840.83 3737.64,1853.91C3750.61,1866.99 3757.81,1884.72 3757.65,1903.14L3757.21,1952.01C3757.21,1992.01 3726.6,2024.86 3687.53,2028.41C3682.27,2129.21 3681.88,2200.08 3685.17,2248.27C3685.89,2256.02 3683.32,2263.72 3678.08,2269.47C3672.84,2275.23 3665.41,2278.51 3657.63,2278.51C3634.89,2278.54 3603.97,2278.54 3581.41,2278.54C3573.74,2278.54 3566.43,2275.37 3561.19,2269.77C3555.96,2264.18 3553.27,2256.67 3553.77,2249.03C3558.27,2178.31 3558.65,2105.52 3551.12,2028.73L3550.36,2028.73C3532.08,2028.73 3514.55,2021.47 3501.62,2008.54C3488.7,1995.62 3481.44,1978.09 3481.44,1959.81L3481.94,1899.87C3482.24,1863.11 3512.13,1833.47 3548.9,1833.47L3548.9,1833.47C3555.79,1833.47 3562.39,1836.23 3567.22,1841.14C3572.05,1846.05 3574.71,1852.69 3574.6,1859.57L3573.96,1899.54C3573.96,1921.41 3596.58,1939.16 3618.45,1939.16C3640.31,1939.16 3664.69,1921.41 3664.69,1899.54L3665.38,1856.31ZM2857.88,1961.03C2859.05,1918.51 2861.14,1875.99 2864.28,1833.47L3018.35,1833.47L3018.35,1833.47C3018.85,1833.47 3019.36,1833.47 3019.86,1833.47C3074.79,1833.47 3124.26,1857.05 3158.69,1894.63C3152.71,1977.74 3151.18,2062.68 3157.02,2150.59C3122.67,2187.13 3073.91,2209.96 3019.86,2209.96C3019.36,2209.96 3018.85,2209.95 3018.35,2209.95L3018.35,2209.96L3000.11,2211.55C2999.73,2259.22 2998.27,2274.54 2996.43,2278.54L2866.45,2278.54C2866.45,2278.54 2878.69,2228.9 2878.2,2102.01C2878.05,2064.09 2869.58,2006.08 2857.88,1961.03ZM3046.78,1925.5C3012.77,1920.9 2978.64,1920.36 2944.31,1925.5C2944.31,1953.77 2967.27,1976.73 2995.55,1976.73C3023.82,1976.73 3046.78,1953.77 3046.78,1925.5ZM3532.23,2047.5C3520.84,2140.52 3441.8,2209.96 3345.71,2209.96C3345.21,2209.96 3344.71,2209.95 3344.21,2209.95L3344.21,2209.96L3325.97,2211.55C3325.59,2259.22 3324.13,2274.54 3322.28,2278.54L3190.14,2278.54C3177.25,2127.05 3174.51,1977.87 3190.14,1833.47L3344.21,1833.47L3344.21,1833.47C3344.71,1833.47 3345.21,1833.47 3345.71,1833.47C3390.1,1833.47 3426.72,1847.59 3458.92,1873.32L3458.21,1964.08C3458.21,1985.52 3468.14,2006.82 3483.3,2021.99C3495.93,2034.62 3514.72,2045.17 3532.23,2047.5ZM3370.04,1925.5C3336.04,1920.9 3301.9,1920.36 3267.58,1925.5C3267.58,1953.77 3290.53,1976.73 3318.81,1976.73C3347.09,1976.73 3370.04,1953.77 3370.04,1925.5Z" style="fill:none;stroke:rgb(54,39,55);stroke-width:9px;"/>
            </g>
        </g>
    </g>
</svg>
